<svg width="116" height="129" viewBox="0 0 116 129" fill="none" xmlns="http://www.w3.org/2000/svg">
<path d="M114.563 32.2439C113.718 30.7243 112.478 29.4549 110.971 28.5667L63.0293 1.21354C61.4758 0.416236 59.7507 0 58 0C56.2493 0 54.5243 0.416236 52.9707 1.21354L5.02928 28.5667C3.56039 29.4986 2.33781 30.7632 1.4631 32.2555C0.588395 33.7477 0.0868053 35.4246 0 37.1468L0 91.8532C0.0473565 93.5818 0.542044 95.2698 1.43694 96.7561C2.28176 98.2757 3.52188 99.5451 5.02928 100.433L52.9707 127.786C54.5243 128.584 56.2493 129 58 129C59.7507 129 61.4758 128.584 63.0293 127.786L110.971 100.433C112.478 99.5451 113.718 98.2757 114.563 96.7561C115.458 95.2698 115.953 93.5818 116 91.8532V37.1468C115.953 35.4182 115.458 33.7302 114.563 32.2439ZM58 102.691C51.2328 102.661 44.5921 100.878 38.7414 97.5188C32.8907 94.1598 28.0351 89.343 24.6596 83.5498C21.2842 77.7566 19.5072 71.1899 19.5062 64.5058C19.5052 57.8218 21.2803 51.2545 24.6541 45.4604C28.0279 39.6662 32.8822 34.8481 38.7319 31.4874C44.5816 28.1268 51.2218 26.3414 57.989 26.3096C64.7562 26.2778 71.4133 28.0008 77.2951 31.3063C83.1769 34.6118 88.0773 39.3841 91.5068 45.1463L84.1261 49.7267L81.7748 51.0169L75.2433 54.9522C73.1579 51.1327 69.8334 48.1162 65.8036 46.3872C61.7739 44.6583 57.2728 44.3171 53.0231 45.4185C48.7735 46.52 45.0219 49.0001 42.3709 52.4606C39.7199 55.9212 38.3233 60.1613 38.4054 64.5C38.3869 67.8573 39.2898 71.1568 41.018 74.0478C42.7646 76.8918 45.2238 79.2431 48.1583 80.875C51.0929 82.5068 54.4037 83.3641 57.7714 83.3641C61.1391 83.3641 64.4499 82.5068 67.3845 80.875C70.319 79.2431 72.7782 76.8918 74.5248 74.0478L91.5068 83.8537C88.0684 89.6056 83.1676 94.37 77.2901 97.6743C71.4127 100.979 64.7628 102.708 58 102.691ZM96.6667 66.6289H92.3559V70.9512H88.1104V66.6934H84.1261V62.4356H88.437V58.0488H92.6824V62.3066H96.9932L96.6667 66.6289ZM112.8 66.6289H108.489V70.9512H104.178V66.6934H99.9324V62.4356H104.178V58.0488H108.489V62.3066H112.8V66.6289Z" fill="white"/>
</svg>
