<svg width="87" height="129" viewBox="0 0 87 129" fill="none" xmlns="http://www.w3.org/2000/svg">
<path d="M65.1569 42.9935C70.8357 42.8258 76.2248 40.4874 80.1814 36.4743C84.138 32.4612 86.3509 27.0889 86.3509 21.4968C86.3509 15.9046 84.138 10.5324 80.1814 6.51925C76.2248 2.50613 70.8357 0.167754 65.1569 0L21.471 0C15.7922 0.167754 10.4031 2.50613 6.44654 6.51925C2.48994 10.5324 0.276996 15.9046 0.276996 21.4968C0.276996 27.0889 2.48994 32.4612 6.44654 36.4743C10.4031 40.4874 15.7922 42.8258 21.471 42.9935C15.7426 43.0912 10.2823 45.3997 6.26634 49.4217C2.25035 53.4437 0 58.8574 0 64.4968C0 70.1361 2.25035 75.5498 6.26634 79.5719C10.2823 83.5939 15.7426 85.9023 21.471 86C15.7706 86.1375 10.3506 88.463 6.36823 92.48C2.38588 96.4971 0.156739 101.887 0.156739 107.5C0.156739 113.113 2.38588 118.503 6.36823 122.52C10.3506 126.537 15.7706 128.863 21.471 129C27.2642 128.997 32.819 126.729 36.9148 122.697C41.0106 118.664 43.3122 113.196 43.314 107.494V42.9935H65.1569Z" fill="white"/>
<path d="M65.1571 85.9933C77.2206 85.9933 87 76.3674 87 64.4933C87 52.6192 77.2204 42.9935 65.1569 42.9935C53.0934 42.9935 43.3142 52.6192 43.3142 64.4933C43.3142 76.3674 53.0936 85.9933 65.1571 85.9933Z" fill="white"/>
</svg>
