<svg width="129" height="129" viewBox="0 0 129 129" fill="none" xmlns="http://www.w3.org/2000/svg">
<path d="M126.564 58.7466L70.2423 2.42811C68.6804 0.873036 66.5662 0 64.3624 0C62.1586 0 60.0444 0.873036 58.4825 2.42811L46.8131 14.1125L61.6434 28.9518C63.3932 28.3605 65.2736 28.2714 67.0714 28.6947C68.8692 29.1179 70.5124 30.0366 71.8147 31.3465C73.117 32.6564 74.0262 34.3051 74.4392 36.1056C74.8522 37.9061 74.7525 39.7863 74.1514 41.533L88.4334 55.8368C90.5479 55.0947 92.8519 55.0944 94.9666 55.8359C97.0813 56.5775 98.8807 58.0167 100.069 59.9169C101.257 61.8171 101.764 64.0652 101.505 66.2915C101.246 68.5178 100.237 70.5897 98.6449 72.1665C94.7809 76.0376 88.543 76.0376 84.6726 72.1665C83.2978 70.79 82.3586 69.0391 81.972 67.1322C81.5854 65.2254 81.7686 63.2469 82.4987 61.4435L69.1198 48.1332V83.2121C70.0616 83.6702 70.9647 84.3025 71.7453 85.0832C73.5896 86.9408 74.6247 89.4526 74.6247 92.0706C74.6247 94.6885 73.5896 97.2003 71.7453 99.058C70.825 99.9799 69.732 100.711 68.5288 101.21C67.3256 101.709 66.0359 101.966 64.7333 101.966C63.4308 101.966 62.141 101.709 60.9378 101.21C59.7346 100.711 58.6416 99.9799 57.7213 99.058C56.8031 98.1422 56.0745 97.0541 55.5774 95.8562C55.0803 94.6583 54.8244 93.374 54.8244 92.077C54.8244 90.78 55.0803 89.4958 55.5774 88.2978C56.0745 87.0999 56.8031 86.0119 57.7213 85.0961C58.7019 84.1283 59.7985 83.3928 60.9725 82.9089V47.4881C59.7664 46.9942 58.6701 46.2661 57.747 45.3459C56.8239 44.4257 56.0922 43.3317 55.5944 42.127C55.0965 40.9224 54.8423 39.631 54.8464 38.3275C54.8506 37.0239 55.1129 35.7342 55.6184 34.5327L41.0397 19.8805L2.41903 58.4756C-0.806344 61.7274 -0.806344 66.9921 2.41903 70.2439L58.7406 126.562C59.5112 127.335 60.4266 127.948 61.4345 128.366C62.4423 128.785 63.5228 129 64.614 129C65.7052 129 66.7856 128.785 67.7935 128.366C68.8013 127.948 69.7168 127.335 70.4874 126.562L126.544 70.5019C127.321 69.7332 127.937 68.8185 128.359 67.8105C128.78 66.8024 128.998 65.7209 129 64.6283C129.002 63.5357 128.787 62.4535 128.369 61.444C127.951 60.4346 127.338 59.5178 126.564 58.7466Z" fill="white"/>
</svg>
