<svg width="118" height="115" viewBox="0 0 118 115" fill="none" xmlns="http://www.w3.org/2000/svg">
<path d="M0 0L118 0V115H0L0 0ZM108.331 87.5725C107.472 82.3272 103.965 77.9189 93.5674 73.8044C89.9488 72.1497 85.9302 71.0061 84.724 68.3483C84.2782 66.7639 84.2127 65.9078 84.5011 64.9686C85.2419 61.8764 89.0048 60.95 91.9548 61.8061C93.8756 62.3811 95.6456 63.8186 96.7534 66.125C101.834 62.8858 101.834 62.8858 105.381 60.7328C104.05 58.7267 103.388 57.8514 102.503 56.9889C99.4019 53.6156 95.2719 51.8906 88.5656 52.0375L85.1042 52.4656C81.7806 53.2578 78.6077 54.9892 76.6934 57.2828C71.0884 63.4672 72.7077 74.2453 79.4927 78.7111C86.199 83.5986 96.0192 84.6719 97.2713 89.2719C98.4513 94.8814 92.9971 96.6767 87.6019 96.0314C83.6227 95.1625 81.4069 93.2267 78.9748 89.6297L69.9806 94.6642C71.0098 96.9578 72.1898 97.9672 73.9598 99.9797C82.5148 108.387 103.906 107.959 107.741 95.1625C107.878 94.7344 108.921 91.7892 108.108 87.2595L108.331 87.5725ZM64.1658 52.8553H53.1131C53.1131 62.1383 53.0672 71.3703 53.0672 80.6725C53.0672 86.5758 53.3753 91.9936 52.3854 93.6611C50.7662 96.9642 46.5772 96.5425 44.6827 95.9547C42.7357 95.0219 41.7458 93.725 40.5986 91.8594C40.2904 91.3611 40.061 90.9267 39.9758 90.9267L31.0078 96.3189C32.509 99.3408 34.6986 101.935 37.524 103.583C41.7261 106.03 47.3704 106.822 53.2836 105.532C57.1382 104.446 60.4619 102.216 62.186 98.7658C64.7033 94.3128 64.1658 88.8439 64.1461 82.7361C64.1986 72.8908 64.1461 63.0392 64.1461 53.1236L64.1658 52.8553Z" fill="white"/>
</svg>
