<svg width="118" height="115" viewBox="0 0 118 115" fill="none" xmlns="http://www.w3.org/2000/svg">
<path d="M43.1806 55.7834H71.531C71.531 55.7834 87.4617 56.0337 87.4617 40.7016V15.3449C87.4617 15.3449 89.8789 0 58.5808 0C28.619 0 30.4858 12.7265 30.4858 12.7265L30.5251 25.915H59.1048V29.8748H19.1732C19.1732 29.8748 0 27.7441 0 57.3557C0 86.9674 16.7364 85.9149 16.7364 85.9149H26.7193V72.1744C26.7193 72.1744 26.1756 55.7834 43.1806 55.7834ZM42.8138 18.9453C41.45 18.9453 40.1421 18.4145 39.1778 17.4697C38.2135 16.5249 37.6717 15.2435 37.6717 13.9073C37.6717 12.5712 38.2135 11.2898 39.1778 10.345C40.1421 9.40016 41.45 8.86938 42.8138 8.86938C44.1776 8.86938 45.4855 9.40016 46.4498 10.345C47.4142 11.2898 47.9559 12.5712 47.9559 13.9073C47.9559 15.2435 47.4142 16.5249 46.4498 17.4697C45.4855 18.4145 44.1776 18.9453 42.8138 18.9453Z" fill="white"/>
<path d="M101.264 29.0851H91.2807V42.8256C91.2807 42.8256 91.8244 59.2166 74.8194 59.2166H46.469C46.469 59.2166 30.5383 58.9599 30.5383 74.2984V99.6551C30.5383 99.6551 28.1211 115 59.4192 115C89.3745 115 87.5076 102.274 87.5076 102.274L87.4683 89.0914H58.8886V85.1316H98.8268C98.8268 85.1316 118 87.2623 118 57.6507C118 28.039 101.264 29.0851 101.264 29.0851ZM75.1862 96.0611C76.55 96.0611 77.8579 96.5919 78.8222 97.5367C79.7865 98.4815 80.3283 99.7629 80.3283 101.099C80.3283 102.435 79.7865 103.717 78.8222 104.661C77.8579 105.606 76.55 106.137 75.1862 106.137C73.8224 106.137 72.5145 105.606 71.5502 104.661C70.5858 103.717 70.0441 102.435 70.0441 101.099C70.0441 99.7629 70.5858 98.4815 71.5502 97.5367C72.5145 96.5919 73.8224 96.0611 75.1862 96.0611Z" fill="white"/>
</svg>
