<svg width="90" height="88" viewBox="0 0 90 88" fill="none" xmlns="http://www.w3.org/2000/svg">
<path fill-rule="evenodd" clip-rule="evenodd" d="M45 0C20.1449 0 0 20.1449 0 45C0 64.8787 12.89 81.748 30.7745 87.7035C33.0259 88.1096 33.838 86.7245 33.838 85.5334C33.838 84.4641 33.8019 81.6307 33.7884 77.8815C21.2683 80.5975 18.6244 71.8448 18.6244 71.8448C16.5851 66.6473 13.6299 65.2622 13.6299 65.2622C9.54682 62.4694 13.9412 62.5326 13.9412 62.5326C18.462 62.8484 20.8307 67.1706 20.8307 67.1706C24.8461 74.0465 31.3701 72.0614 33.9237 70.9109C34.3343 68.0008 35.5073 66.0156 36.7887 64.8922C26.7997 63.7598 16.2964 59.8977 16.2964 42.6494C16.2964 37.7451 18.0514 33.7207 20.9164 30.5805C20.4607 29.439 18.9042 24.8596 21.363 18.6695C21.363 18.6695 25.1394 17.4559 33.7342 23.276C37.4049 22.2774 41.1914 21.7677 44.9955 21.7601C48.7997 21.7662 52.5863 22.276 56.2568 23.276C64.8561 17.4514 68.6279 18.6695 68.6279 18.6695C71.0868 24.8596 69.5438 29.439 69.0746 30.5805C71.9621 33.7207 73.6946 37.7406 73.6946 42.6494C73.6946 59.9429 63.1823 63.7417 53.1572 64.8561C54.7589 66.2457 56.2026 68.9889 56.2026 73.1848C56.2026 79.2034 56.1485 84.0581 56.1485 85.5334C56.1485 86.738 56.9516 88.1367 59.248 87.6945C77.1235 81.73 90 64.8742 90 45C90 20.1449 69.8551 0 45 0Z" fill="white"/>
</svg>
