<svg width="100" height="75" viewBox="0 0 100 75" fill="none" xmlns="http://www.w3.org/2000/svg">
<path d="M83.6441 2.4801L77.2464 7.45062L50.0062 27.5812L22.766 7.2518L16.3683 2.28128C14.8611 1.04136 13.0212 0.268422 11.0766 0.0582189C9.13203 -0.151984 7.16814 0.209789 5.42826 1.09872C3.68839 1.98765 2.249 3.36467 1.28841 5.05918C0.327823 6.75369 -0.111745 8.69123 0.0241633 10.6318V68.2401C0.0241633 70.0329 0.740332 71.7523 2.01512 73.0201C3.28991 74.2878 5.0189 75 6.82172 75H22.766V36.6276L50.0062 56.957L77.2464 36.6276V75H93.1907C94.9935 75 96.7225 74.2878 97.9973 73.0201C99.2721 71.7523 99.9883 70.0329 99.9883 68.2401V10.6318C100.082 8.70798 99.612 6.79851 98.635 5.13547C97.658 3.47243 96.2163 2.12743 94.485 1.26397C92.7538 0.400512 90.8076 0.0557798 88.883 0.271677C86.9585 0.487575 85.1384 1.2548 83.6441 2.4801Z" fill="white"/>
</svg>
