<svg width="115" height="75" viewBox="0 0 115 75" fill="none" xmlns="http://www.w3.org/2000/svg">
<path d="M112.363 5.07898C113.167 2.1488 112.363 0 108.564 0H95.9785C92.7762 0 91.3127 1.85893 90.5093 3.90061C90.5093 3.90061 84.1103 21.0343 75.0428 32.1438C72.1159 35.3764 70.7787 36.3972 69.1833 36.3972C68.3856 36.3972 67.2263 35.3764 67.2263 32.4462V5.07898C67.2263 1.56276 66.3023 0 63.6337 0H43.8572C41.86 0 40.6549 1.62578 40.6549 3.17594C40.6549 6.50311 45.1886 7.27189 45.6535 16.6485V36.9896C45.6535 41.4447 44.9246 42.2576 43.3177 42.2576C39.0537 42.2576 28.6776 25.0609 22.5197 5.37515C21.3203 1.55016 20.1093 0.00630401 16.8955 0.00630401H4.3157C0.717372 0.00630401 0 1.86523 0 3.90691C0 7.57436 4.26405 25.7226 19.8626 49.7248C30.2616 66.1149 44.9017 75 58.239 75C66.2334 75 67.2205 73.0276 67.2205 69.6248V57.2362C67.2205 53.2915 67.9838 52.4975 70.5147 52.4975C72.3741 52.4975 75.5765 53.5309 83.0429 61.4267C91.571 70.7906 92.9828 74.9937 97.7748 74.9937H110.355C113.947 74.9937 115.744 73.0213 114.711 69.127C113.58 65.2516 109.505 59.6118 104.099 52.9386C101.161 49.1325 96.7705 45.0365 95.4333 42.9886C93.5681 40.3483 94.1076 39.1825 95.4333 36.8383C95.439 36.8447 110.768 13.1385 112.363 5.07898Z" fill="white"/>
</svg>
